<svg xmlns="http://www.w3.org/2000/svg" width="16" height="17" fill="none" viewBox="0 0 16 17">
  <path fill="#4AFFA4" fill-rule="evenodd" d="M7.53 0c.704 0 1.346.382 2.63 1.145l2.238 1.331c1.284.764 1.926 1.145 2.279 1.774.352.628.352 1.392.352 2.919V9.83c0 1.527 0 2.29-.352 2.919-.353.629-.995 1.01-2.279 1.774l-2.238 1.33C8.876 16.618 8.234 17 7.53 17c-.706 0-1.348-.382-2.632-1.146l-2.238-1.33C1.376 13.761.734 13.38.382 12.75c-.353-.63-.353-1.392-.353-2.92V7.17c0-1.527 0-2.29.353-2.92.352-.628.994-1.01 2.278-1.773l2.238-1.33C6.182.381 6.824 0 7.53 0Zm-.55 3.956c0-.748-.78-1.221-1.415-.86l-2.2 1.254c-.517.295-.775.442-.965.65a1.818 1.818 0 0 0-.387.678c-.086.271-.086.575-.086 1.183 0 1.788 0 2.682.248 3.484A5.46 5.46 0 0 0 3.3 12.351c.55.622 1.316 1.077 2.847 1.988.513.305.77.457 1.039.517.228.051.463.054.693.01.27-.052.526-.195 1.037-.48l2.332-1.3c.628-.35.636-1.274.016-1.637l-1.47-.857c-.14-.082-.21-.123-.274-.163-1.53-.953-2.486-2.641-2.538-4.482-.002-.078-.002-.161-.002-.327V3.956Z" clip-rule="evenodd"/>
</svg>
